<svg width="50" height="50" viewBox="0 0 50 50" fill="none" xmlns="http://www.w3.org/2000/svg">
<path d="M1.16162 48.936L4.52771 36.6439C2.45137 33.0463 1.35922 28.9654 1.36075 24.7845C1.36609 11.705 12.0099 1.06396 25.089 1.06396C31.4359 1.06664 37.3933 3.53703 41.8733 8.02081C46.3529 12.5046 48.8191 18.4647 48.8168 24.8035C48.8111 37.8826 38.1658 48.5252 25.089 48.5252C25.0882 48.5252 25.0893 48.5252 25.089 48.5252H25.0787C21.1076 48.5236 17.2059 47.5276 13.7402 45.6374L1.16162 48.936ZM14.3227 41.3433L15.0433 41.7701C18.0707 43.5668 21.5417 44.5171 25.0813 44.519H25.089C35.9586 44.519 44.8056 35.6735 44.8102 24.802C44.8121 19.5335 42.7629 14.5794 39.0393 10.8528C35.3154 7.12627 30.3643 5.07282 25.0962 5.07053C14.2178 5.07053 5.37115 13.9149 5.36695 24.786C5.36542 28.5114 6.4076 32.1392 8.38209 35.2787L8.8513 36.0248L6.8585 43.3002L14.3227 41.3433Z" fill="white"/>
<path fill-rule="evenodd" clip-rule="evenodd" d="M19.1585 14.8677C18.7145 13.8805 18.2468 13.8606 17.8241 13.8435C17.4785 13.8286 17.0829 13.8294 16.6881 13.8294C16.2929 13.8294 15.6505 13.9781 15.1073 14.5713C14.5637 15.1645 13.0317 16.5988 13.0317 19.516C13.0317 22.4334 15.1565 25.2521 15.4529 25.6481C15.7493 26.0437 19.5545 32.2212 25.5805 34.5978C30.5888 36.5731 31.6077 36.1802 32.6949 36.0814C33.7821 35.9826 36.2025 34.647 36.6965 33.2627C37.1909 31.8783 37.1909 30.6919 37.0425 30.4436C36.8941 30.1968 36.4989 30.0484 35.9061 29.752C35.3133 29.4556 32.3985 28.0209 31.8549 27.8233C31.3113 27.6253 30.9161 27.5269 30.5209 28.1204C30.1254 28.7132 28.9901 30.0484 28.6441 30.4436C28.2981 30.8399 27.9521 30.8895 27.3593 30.5927C26.7665 30.2956 24.8569 29.67 22.5917 27.6501C20.8293 26.0788 19.6392 24.1379 19.2932 23.5443C18.9476 22.9515 19.2874 22.6585 19.5537 22.3346C20.0332 21.7514 20.8377 20.7027 21.0353 20.3075C21.2329 19.9115 21.1341 19.5655 20.9861 19.2688C20.8377 18.9724 19.6853 16.0404 19.1585 14.8677Z" fill="white"/>
</svg>
